<svg id="Layer_1" data-name="Layer 1" xmlns="http://www.w3.org/2000/svg" viewBox="0 0 467.57 437.46"><defs><style>.cls-1{isolation:isolate;}.cls-2{fill:#231f20;}</style></defs><g class="cls-1"><path class="cls-2" d="M238.45,544.1H225.72l-.27-.6L68.89,183.22C61,164.92,55.3,153.59,52.08,149.55a53.27,53.27,0,0,0-18.61-14.67c-7.35-3.52-17.45-5.82-30-6.84L2.55,128V114.64H175.29V128l-.91.09c-19,1.82-31.49,5.06-37.06,9.64a21.34,21.34,0,0,0-8.26,17.41c0,10.09,4.74,26.13,14.09,47.68L248.53,445.6l97.73-239.73c9.56-23.6,14.41-40.17,14.41-49.24,0-5.64-2.9-11.14-8.61-16.37s-15.78-9.08-29.69-11.31c-1.07-.2-2.83-.51-5.25-.92l-.83-.14V114.64H447.11v13.24l-.82.15c-14.54,2.62-25.68,7.31-33.1,13.94-10.72,9.9-20.38,25.34-28.71,45.85Zm-11.42-2H237.1l145.52-355c8.44-20.79,18.27-36.47,29.22-46.58,7.57-6.76,18.76-11.56,33.27-14.28v-9.57H318.29v9.56c2,.34,3.5.6,4.43.79,14.27,2.27,24.6,6.25,30.68,11.8s9.27,11.62,9.27,17.84c0,9.33-4.9,26.15-14.56,50L248.59,450.76,141.32,203.56c-9.47-21.79-14.26-38.1-14.26-48.47a23.54,23.54,0,0,1,9-19c5.87-4.82,18.06-8.09,37.24-10v-9.5H4.55v9.48c12.37,1.08,22.39,3.41,29.79,7a55.29,55.29,0,0,1,19.3,15.22c3.38,4.23,9,15.4,17.09,34.13Z" transform="translate(-2.55 -106.64)"/></g><g class="cls-1"><path class="cls-2" d="M261.45,536.1H248.71l-.26-.6L91.89,175.22C84,156.92,78.3,145.59,75.08,141.55a53.27,53.27,0,0,0-18.61-14.67c-7.35-3.52-17.45-5.82-30-6.84l-.92-.07V106.64H198.29V120l-.91.09c-19,1.82-31.49,5.06-37.06,9.64a21.34,21.34,0,0,0-8.26,17.41c0,10.09,4.74,26.13,14.09,47.68L271.53,437.6l97.73-239.73c9.56-23.6,14.41-40.17,14.41-49.24,0-5.64-2.9-11.14-8.61-16.37s-15.78-9.08-29.69-11.31c-1.07-.2-2.83-.51-5.25-.92l-.83-.14V106.64H470.11v13.24l-.82.15c-14.54,2.62-25.68,7.31-33.1,13.94-10.72,9.9-20.38,25.34-28.71,45.85Zm-11.42-2H260.1l145.52-355c8.44-20.79,18.27-36.47,29.22-46.58,7.57-6.76,18.76-11.56,33.27-14.28v-9.57H341.29v9.56c2,.34,3.5.6,4.43.79,14.27,2.27,24.6,6.25,30.68,11.8s9.27,11.62,9.27,17.84c0,9.33-4.9,26.15-14.56,50L271.59,442.76,164.32,195.56c-9.47-21.79-14.26-38.1-14.26-48.47a23.54,23.54,0,0,1,9-19c5.87-4.82,18.06-8.09,37.24-10v-9.5H27.55v9.48c12.37,1.08,22.39,3.41,29.79,7a55.29,55.29,0,0,1,19.3,15.22c3.38,4.23,9,15.4,17.09,34.13Z" transform="translate(-2.55 -106.64)"/></g></svg>